
        <svg xmlns="http://www.w3.org/2000/svg" xmlns:xlink="http://www.w3.org/1999/xlink" version="1.1" width="3185.7585139318885" 
        height="1030.9597523219816" viewBox="0 0 3185.7585139318885 1030.9597523219816">
			
			<g transform="scale(9.287925696594428) translate(10, 10)">
				<defs id="SvgjsDefs1367"><linearGradient id="SvgjsLinearGradient1374"><stop id="SvgjsStop1375" stop-color="#8f5e25" offset="0"></stop><stop id="SvgjsStop1376" stop-color="#fbf4a1" offset="0.5"></stop><stop id="SvgjsStop1377" stop-color="#8f5e25" offset="1"></stop></linearGradient><linearGradient id="SvgjsLinearGradient1378"><stop id="SvgjsStop1379" stop-color="#8f5e25" offset="0"></stop><stop id="SvgjsStop1380" stop-color="#fbf4a1" offset="0.5"></stop><stop id="SvgjsStop1381" stop-color="#8f5e25" offset="1"></stop></linearGradient><linearGradient id="SvgjsLinearGradient1382"><stop id="SvgjsStop1383" stop-color="#8f5e25" offset="0"></stop><stop id="SvgjsStop1384" stop-color="#fbf4a1" offset="0.5"></stop><stop id="SvgjsStop1385" stop-color="#8f5e25" offset="1"></stop></linearGradient></defs><g id="SvgjsG1368" featureKey="symbolContainer" transform="matrix(1,0,0,1,0,0)" fill="url(#SvgjsLinearGradient1374)">    <path xmlns="http://www.w3.org/2000/svg" fill-rule="nonzero" d="             M0,0             H103             V91             H0,0             z             M4,4             v83             h95             v-83             z     "></path></g><g id="SvgjsG1369" featureKey="monogramFeature-0" transform="matrix(1.489995757387525,0,0,1.489995757387525,16.463606301801995,-12.372926042535742)" fill="url(#SvgjsLinearGradient1378)"><path d="M0.36 60 l17.88 -42.3 l11.22 0 l17.88 42.3 l-12.48 0 l-3.06 -7.5 l-16.2 0 l-3 7.5 l-12.24 0 z M19.02 43.44 l9.42 0 l-4.68 -11.94 z"></path></g><g id="SvgjsG1370" featureKey="nameFeature-0" transform="matrix(0.848320345520711,0,0,0.848320345520711,122.79640310898482,21.83814091559338)" fill="url(#SvgjsLinearGradient1382)"><path d="M0.24 40 l11.92 -28.2 l7.48 0 l11.92 28.2 l-8.32 0 l-2.04 -5 l-10.8 0 l-2 5 l-8.16 0 z M12.68 28.96 l6.28 0 l-3.12 -7.96 z M33.84 16.4 l0 -5.6 l7.92 0 l0 5.6 l-7.92 0 z M33.88 46.519999999999996 c-1.2 0 -2.2 -0.16 -3.12 -0.28 l0 -5.04 c0.32 0.04 0.68 0.04 1 0.04 c1.48 0 2.24 -0.64 2.24 -2.52 l0 -20.36 l7.6 0 l0 20.68 c0 5.48 -2.8 7.48 -7.72 7.48 z M52.120000000000005 40.48 c-4.12 0 -7.28 -2.36 -7.28 -6.68 l0 -0.08 c0 -4.48 3.4 -6.8 8.48 -6.8 c2 0 3.96 0.4 5.2 0.84 l0 -0.36 c0 -2.24 -1.4 -3.52 -4.32 -3.52 c-2.28 0 -4.04 0.44 -5.96 1.2 l-1.56 -5.36 c2.44 -1 5.04 -1.68 8.76 -1.68 c3.88 0 6.52 0.92 8.24 2.64 c1.64 1.6 2.32 3.84 2.32 6.88 l0 12.44 l-7.52 0 l0 -2.24 c-1.48 1.64 -3.52 2.72 -6.36 2.72 z M54.84 35.72 c2.2 0 3.76 -1.4 3.76 -3.56 l0 -1 c-0.76 -0.32 -1.84 -0.56 -2.96 -0.56 c-2.2 0 -3.48 1.08 -3.48 2.68 l0 0.08 c0 1.48 1.12 2.36 2.68 2.36 z M75.28 46.519999999999996 c-2.68 0 -4.96 -0.76 -6.96 -1.88 l2.36 -5.32 c1.2 0.72 2.48 1.16 3.32 1.16 c0.76 0 1.28 -0.2 1.76 -0.88 l-8.48 -21.24 l7.96 0 l4.32 13.04 l4.08 -13.04 l7.8 0 l-7.92 21.12 c-1.88 5.04 -3.92 7.04 -8.24 7.04 z M105.44 40 l0 -28 l7.76 0 l0 11.36 l9.64 -11.36 l9.2 0 l-10.6 12.04 l10.96 15.96 l-9.32 0 l-7.04 -10.4 l-2.84 3.16 l0 7.24 l-7.76 0 z M140.6 40.48 c-4.6 0 -7.36 -3.04 -7.36 -7.96 l0 -14.16 l7.6 0 l0 11.72 c0 2.36 1.24 3.64 3.08 3.64 c1.8 0 3.16 -1.28 3.16 -3.64 l0 -11.72 l7.6 0 l0 21.64 l-7.6 0 l0 -2.96 c-1.4 1.8 -3.4 3.44 -6.48 3.44 z M158.75999999999996 40 l0 -21.64 l7.6 0 l0 2.96 c1.4 -1.8 3.4 -3.44 6.44 -3.44 c2.88 0 5.08 1.28 6.24 3.52 c1.88 -2.16 4.08 -3.52 7.24 -3.52 c4.6 0 7.4 2.88 7.4 7.92 l0 14.2 l-7.6 0 l0 -11.76 c0 -2.36 -1.16 -3.6 -2.96 -3.6 s-3.12 1.24 -3.12 3.6 l0 11.76 l-7.6 0 l0 -11.76 c0 -2.36 -1.16 -3.6 -2.96 -3.6 s-3.08 1.24 -3.08 3.6 l0 11.76 l-7.6 0 z M203.79999999999998 40.48 c-4.12 0 -7.28 -2.36 -7.28 -6.68 l0 -0.08 c0 -4.48 3.4 -6.8 8.48 -6.8 c2 0 3.96 0.4 5.2 0.84 l0 -0.36 c0 -2.24 -1.4 -3.52 -4.32 -3.52 c-2.28 0 -4.04 0.44 -5.96 1.2 l-1.56 -5.36 c2.44 -1 5.04 -1.68 8.76 -1.68 c3.88 0 6.52 0.92 8.24 2.64 c1.64 1.6 2.32 3.84 2.32 6.88 l0 12.44 l-7.52 0 l0 -2.24 c-1.48 1.64 -3.52 2.72 -6.36 2.72 z M206.51999999999998 35.72 c2.2 0 3.76 -1.4 3.76 -3.56 l0 -1 c-0.76 -0.32 -1.84 -0.56 -2.96 -0.56 c-2.2 0 -3.48 1.08 -3.48 2.68 l0 0.08 c0 1.48 1.12 2.36 2.68 2.36 z M221.55999999999997 40 l0 -21.64 l7.6 0 l0 4.36 c1.24 -2.96 3.24 -4.88 6.84 -4.72 l0 8 l-0.64 0 c-3.96 0 -6.2 2.28 -6.2 7.28 l0 6.72 l-7.6 0 z"></path></g>
			</g>
		</svg>
	