<?xml version="1.0" standalone="yes"?>
<svg xmlns="http://www.w3.org/2000/svg" width="719" height="405">
<path style="fill:#eaaa9c; stroke:none;" d="M0 0L0 134C10.8324 126.466 21.2839 120.871 35 121L40 118L39 121C60.3432 115.476 75.8894 105.509 94 93.1945C99.6932 89.3232 108.57 86.0885 112 80C123.458 80.6653 135.635 71.3129 148 71.0146C159.33 70.7414 169.969 75.6902 181 75.8171C187.648 75.8936 194.357 73.5474 201 73.0895C231.465 70.9895 262.729 67.591 291 55L290 58C285.169 57.682 280.489 61.0483 275.961 62.5363C266.462 65.6572 256.69 68.6894 247 71.2438C227.734 76.3229 207.726 76.1551 188 77L188 78C225.071 88.4176 268.85 74.5945 299 53L297 51L301 51C324.386 26.8594 353.565 2.4454 389 12.9128C415.611 20.7737 431.169 45.7497 462 36C462.349 32.6237 464.805 32.3952 465 36L484 29C484 24.8909 490.323 22.4552 494 23L493 20L494 19C503.506 19.3705 513.48 5.02045 522 1C510.464 -3.80655 489.957 0.151245 477.424 0.151245L370 0L0 0z"/>
<path style="fill:#b89592; stroke:none;" d="M477 0L478 1L477 0M488.667 0.333344L489.333 0.666656L488.667 0.333344M502 0L503 1L502 0M513.667 0.333344L514.333 0.666656L513.667 0.333344z"/>
<path style="fill:#fde7e1; stroke:none;" d="M522 0L523 5L517 4L516 5C515.611 9.29135 512.709 9.12747 509 10L510 14L505 13C503.917 16.0952 503.505 18.1213 500 17L499 17L497 23L490 23L490 28L483 27L485 31L481 32L481 28C466.711 35.4865 449.202 41.7101 433 36.402C413.812 30.1159 400.647 14.1121 380 10.4637C356.466 6.30539 336.337 18.2441 320.015 33.9637C314.285 39.4821 305.205 44.4427 301 51L297 51L299 53C288.68 58.1338 279.794 65.953 269.004 70.4012C244.437 80.5291 213.798 83.3221 188 78L188 77C215.836 76.4438 241.496 74.148 268 64.9367C274.983 62.5097 286.581 61.5284 291 55C255.474 66.5793 219.44 74.0313 182 75.6204C165.401 76.3248 151.316 68.879 134 72.8873C109.243 78.6181 90.2598 96.7483 69 109.396C59.3313 115.148 49.4652 117.45 39 121L40 118L35 121C30.8745 120.387 27.0861 121.831 23 122.576C15.3431 123.971 6.19741 125.955 1.6034 133.015C-1.20051 137.325 0 144.09 0 149L0 184L0 405C6.46629 404.999 17.8005 406.939 23 403L24 403C28.5667 406.46 43.4418 406.453 48 403L49 403C52.9462 405.99 57.3343 404.571 62 404.571C73.6804 404.57 89.0828 407.626 100 403L111 404.745L138 404.71L254 405L719 405L719 0L522 0z"/>
<path style="fill:#b89592; stroke:none;" d="M469.667 1.33334L470.333 1.66666L469.667 1.33334M481 1L481 2L485 3L485 2L481 1M494.667 1.33334L495.333 1.66666L494.667 1.33334M507.667 1.33334L508.333 1.66666L507.667 1.33334M518 4L519 4L522 4C522.595 0.44281 519.219 1.81158 518 4M458 2L460 4L458 2z"/>
<path style="fill:#8d6a6a; stroke:none;" d="M468 2L469 3L468 2z"/>
<path style="fill:#45353b; stroke:none;" d="M468 4L469 5L471 2L468 4z"/>
<path style="fill:#8d6a6a; stroke:none;" d="M471 2L470 5L471 2M481 2L482 3L481 2z"/>
<path style="fill:#45353b; stroke:none;" d="M481 4L482 5L484 2L481 4z"/>
<path style="fill:#8d6a6a; stroke:none;" d="M493.333 2.66666L493.667 3.33334L493.333 2.66666z"/>
<path style="fill:#45353b; stroke:none;" d="M494 5L497 2L494 5z"/>
<path style="fill:#b89592; stroke:none;" d="M497.333 2.66666L497.667 3.33334L497.333 2.66666z"/>
<path style="fill:#8d6a6a; stroke:none;" d="M506 2L506 5L507 5L506 2z"/>
<path style="fill:#45353b; stroke:none;" d="M507 2L507 5L510 4L510 3L507 2z"/>
<path style="fill:#8d6a6a; stroke:none;" d="M509 2L510 3L509 2z"/>
<path style="fill:#45353b; stroke:none;" d="M519 2L520 5L521 5L522 2L519 2z"/>
<path style="fill:#8d6a6a; stroke:none;" d="M458.333 3.66666L458.667 4.33334L458.333 3.66666M484 3L485 4L484 3M468 4L469 5L468 4z"/>
<path style="fill:#b89592; stroke:none;" d="M471 4L472 5L471 4z"/>
<path style="fill:#8d6a6a; stroke:none;" d="M481 4L482 5L481 4M483 4L484 5L483 4z"/>
<path style="fill:#b89592; stroke:none;" d="M493 4L494 5L493 4z"/>
<path style="fill:#8d6a6a; stroke:none;" d="M496 4L497 5L496 4M509 4L510 5L509 4M519 4L520 5L519 4M521 4L522 5L521 4z"/>
<path style="fill:#eaaa9c; stroke:none;" d="M522 4L523 5L522 4z"/>
<path style="fill:#b89592; stroke:none;" d="M463 5L463 6L466 7L463 5M475 7L478 6L475 7M488.667 5.33334L489.333 5.66666L488.667 5.33334M500 7L503 6L500 7M513 5L512 7L513 5z"/>
<path style="fill:#8d6a6a; stroke:none;" d="M514 5L515 6L514 5z"/>
<path style="fill:#b89592; stroke:none;" d="M515 5L516 6L515 5z"/>
<path style="fill:#8d6a6a; stroke:none;" d="M462 6L463 7L462 6z"/>
<path style="fill:#45353b; stroke:none;" d="M462 7L462 8L465 9L465 6L462 7M476 6L476 9L479 8L479 7L476 6z"/>
<path style="fill:#8d6a6a; stroke:none;" d="M478 6L479 7L478 6M487 6L488 7L487 6z"/>
<path style="fill:#45353b; stroke:none;" d="M487 7L487 8L491 8L487 7z"/>
<path style="fill:#8d6a6a; stroke:none;" d="M490 6L491 7L490 6z"/>
<path style="fill:#45353b; stroke:none;" d="M501 6L501 9L504 9L504 6L501 6M513 9L516 6L513 9z"/>
<path style="fill:#8d6a6a; stroke:none;" d="M465 7L466 8L465 7M475 7L476 8L475 7M500 7L501 8L500 7z"/>
<path style="fill:#b89592; stroke:none;" d="M504 7L505 8L504 7z"/>
<path style="fill:#8d6a6a; stroke:none;" d="M512 7L513 8L512 7z"/>
<path style="fill:#eaaa9c; stroke:none;" d="M516 7L517 8L516 7z"/>
<path style="fill:#8d6a6a; stroke:none;" d="M462 8L463 9L462 8z"/>
<path style="fill:#b89592; stroke:none;" d="M465 8L466 9L465 8M475 8L476 9L475 8z"/>
<path style="fill:#8d6a6a; stroke:none;" d="M478 8L479 9L478 8M487 8L488 9L487 8M490 8L491 9L490 8z"/>
<path style="fill:#b89592; stroke:none;" d="M500 8L501 9L500 8M512 8L513 9L512 8z"/>
<path style="fill:#8d6a6a; stroke:none;" d="M515 8L516 9L515 8z"/>
<path style="fill:#b89592; stroke:none;" d="M464 9L465 10L464 9M476.667 9.33334L477.333 9.66666L476.667 9.33334M488.667 9.33334L489.333 9.66666L488.667 9.33334M502 9L503 10L502 9z"/>
<path style="fill:#eaaa9c; stroke:none;" d="M514 9L515 10L514 9z"/>
<path style="fill:#b89592; stroke:none;" d="M455 13L456 13L458 11L455 13M469.667 10.3333L470.333 10.6667L469.667 10.3333M481 10L481 11L485 12L485 11L481 10M494 10L495 11L494 10z"/>
<path style="fill:#8d6a6a; stroke:none;" d="M495 10L496 11L495 10z"/>
<path style="fill:#b89592; stroke:none;" d="M507 10L508 11L507 10z"/>
<path style="fill:#8d6a6a; stroke:none;" d="M508 10L509 11L508 10z"/>
<path style="fill:#eaaa9c; stroke:none;" d="M520 10L521 11L520 10z"/>
<path style="fill:#45353b; stroke:none;" d="M456 11L459 13L456 11z"/>
<path style="fill:#8d6a6a; stroke:none;" d="M458 11L459 12L458 11M468 11L469 12L468 11z"/>
<path style="fill:#45353b; stroke:none;" d="M468 13L469 14L471 11L468 13z"/>
<path style="fill:#8d6a6a; stroke:none;" d="M471 11L470 14L471 11z"/>
<path style="fill:#45353b; stroke:none;" d="M481 11L484 14L481 11z"/>
<path style="fill:#8d6a6a; stroke:none;" d="M493 11L495 14L493 11z"/>
<path style="fill:#45353b; stroke:none;" d="M494 11L495 14L496 14L497 11L494 11z"/>
<path style="fill:#b89592; stroke:none;" d="M497.333 11.6667L497.667 12.3333L497.333 11.6667z"/>
<path style="fill:#8d6a6a; stroke:none;" d="M506 11L507 12L506 11z"/>
<path style="fill:#45353b; stroke:none;" d="M506 12L506 13L509 14L509 11L506 12z"/>
<path style="fill:#b89592; stroke:none;" d="M509.333 11.6667L509.667 12.3333L509.333 11.6667M480 12L481 13L480 12z"/>
<path style="fill:#8d6a6a; stroke:none;" d="M484 12L485 13L484 12M456 13L456 14L459 14L456 13z"/>
<path style="fill:#b89592; stroke:none;" d="M468 13L469 14L468 13M471 13L472 14L471 13z"/>
<path style="fill:#8d6a6a; stroke:none;" d="M481 13L482 14L481 13z"/>
<path style="fill:#b89592; stroke:none;" d="M484 13L485 14L484 13M493 13L494 14L493 13z"/>
<path style="fill:#8d6a6a; stroke:none;" d="M496 13L497 14L496 13z"/>
<path style="fill:#b89592; stroke:none;" d="M506 13L507 14L506 13z"/>
<path style="fill:#eaaa9c; stroke:none;" d="M509 13L510 14L509 13z"/>
<path style="fill:#b89592; stroke:none;" d="M462 14L462 15L466 16L466 15L462 14M475 16L478 15L475 16M488.667 14.3333L489.333 14.6667L488.667 14.3333M502 14L503 15L502 14z"/>
<path style="fill:#8d6a6a; stroke:none;" d="M462 15L463 16L462 15z"/>
<path style="fill:#45353b; stroke:none;" d="M462 16L462 17L465 18L465 15L462 16M476 15L476 18L479 17L479 16L476 15z"/>
<path style="fill:#8d6a6a; stroke:none;" d="M478 15L479 16L478 15M487 15L488 16L487 15z"/>
<path style="fill:#45353b; stroke:none;" d="M487 16L487 17L491 17L487 16z"/>
<path style="fill:#8d6a6a; stroke:none;" d="M490 15L491 16L490 15z"/>
<path style="fill:#b89592; stroke:none;" d="M500 15L501 16L500 15z"/>
<path style="fill:#45353b; stroke:none;" d="M501 15L501 18L504 18L504 15L501 15z"/>
<path style="fill:#b89592; stroke:none;" d="M461 16L462 17L461 16z"/>
<path style="fill:#8d6a6a; stroke:none;" d="M465 16L466 17L465 16M475.333 16.6667L475.667 17.3333L475.333 16.6667M500 16L501 17L500 16z"/>
<path style="fill:#eaaa9c; stroke:none;" d="M504 16L505 17L504 16z"/>
<path style="fill:#8d6a6a; stroke:none;" d="M462 17L463 18L462 17z"/>
<path style="fill:#b89592; stroke:none;" d="M465 17L466 18L465 17z"/>
<path style="fill:#8d6a6a; stroke:none;" d="M478 17L479 18L478 17M487 17L488 18L487 17M490 17L491 18L490 17z"/>
<path style="fill:#b89592; stroke:none;" d="M500 17L501 18L500 17M463.667 18.3333L464.333 18.6667L463.667 18.3333M476.667 18.3333L477.333 18.6667L476.667 18.3333M488.667 18.3333L489.333 18.6667L488.667 18.3333z"/>
<path style="fill:#eaaa9c; stroke:none;" d="M502 18L503 19L502 18z"/>
<path style="fill:#b89592; stroke:none;" d="M455 22L456 22L458 20L455 22M469.667 19.3333L470.333 19.6667L469.667 19.3333M480 20L480 21L485 21L480 20M494 19L495 20L494 19z"/>
<path style="fill:#8d6a6a; stroke:none;" d="M495 19L496 20L495 19z"/>
<path style="fill:#45353b; stroke:none;" d="M456 20L456 22L459 22L459 20L456 20z"/>
<path style="fill:#8d6a6a; stroke:none;" d="M468 20L469 21L468 20z"/>
<path style="fill:#45353b; stroke:none;" d="M468 22L469 23L471 20L468 22z"/>
<path style="fill:#8d6a6a; stroke:none;" d="M471 20L470 23L471 20z"/>
<path style="fill:#45353b; stroke:none;" d="M481 20L482 23L483 23L484 20L481 20z"/>
<path style="fill:#8d6a6a; stroke:none;" d="M493.333 20.6667L493.667 21.3333L493.333 20.6667z"/>
<path style="fill:#45353b; stroke:none;" d="M494 23L497 20L494 23z"/>
<path style="fill:#8d6a6a; stroke:none;" d="M484 21L483 23L484 21M456 22L456 23L459 23L456 22M468 22L469 23L468 22z"/>
<path style="fill:#b89592; stroke:none;" d="M471 22L472 23L471 22z"/>
<path style="fill:#8d6a6a; stroke:none;" d="M481 22L482 23L481 22z"/>
<path style="fill:#b89592; stroke:none;" d="M484 22L485 23L484 22z"/>
<path style="fill:#8d6a6a; stroke:none;" d="M496 22L497 23L496 22z"/>
<path style="fill:#b89592; stroke:none;" d="M463 23L463 24L466 25L463 23M488 23L489 24L488 23z"/>
<path style="fill:#8d6a6a; stroke:none;" d="M489 23L491 25L489 23z"/>
<path style="fill:#45353b; stroke:none;" d="M462 24L465 27L462 24z"/>
<path style="fill:#8d6a6a; stroke:none;" d="M475 24L475 27L476 27L475 24z"/>
<path style="fill:#45353b; stroke:none;" d="M476 24L476 27L478 27L478 24L476 24z"/>
<path style="fill:#8d6a6a; stroke:none;" d="M478 24L478 27L479 27L478 24M487 24L488 25L487 24z"/>
<path style="fill:#45353b; stroke:none;" d="M487 25L487 26L491 26L487 25z"/>
<path style="fill:#8d6a6a; stroke:none;" d="M465 25L466 26L465 25z"/>
<path style="fill:#b89592; stroke:none;" d="M486 25L487 26L486 25z"/>
<path style="fill:#8d6a6a; stroke:none;" d="M462 26L463 27L462 26z"/>
<path style="fill:#b89592; stroke:none;" d="M465 26L466 27L465 26M487 26L488 27L487 26z"/>
<path style="fill:#8d6a6a; stroke:none;" d="M490 26L491 27L490 26z"/>
<path style="fill:#b89592; stroke:none;" d="M463 27L464 28L463 27M476.667 27.3333L477.333 27.6667L476.667 27.3333z"/>
<path style="fill:#eaaa9c; stroke:none;" d="M488.667 27.3333L489.333 27.6667L488.667 27.3333z"/>
<path style="fill:#b89592; stroke:none;" d="M455 31L456 31L458 29L455 31M469.667 28.3333L470.333 28.6667L469.667 28.3333M482 28L483 29L482 28M493 30L496 29L493 30z"/>
<path style="fill:#45353b; stroke:none;" d="M456 29L459 31L456 29z"/>
<path style="fill:#8d6a6a; stroke:none;" d="M458 29L459 30L458 29M468 29L469 30L468 29z"/>
<path style="fill:#45353b; stroke:none;" d="M468 30L468 31L471 32L471 29L468 30z"/>
<path style="fill:#8d6a6a; stroke:none;" d="M471.333 29.6667L471.667 30.3333L471.333 29.6667z"/>
<path style="fill:#45353b; stroke:none;" d="M481 29L482 32L483 32L484 29L481 29z"/>
<path style="fill:#b89592; stroke:none;" d="M484 29L485 30L484 29z"/>
<path style="fill:#45353b; stroke:none;" d="M494 29L496 32L497 31L496 29L494 29z"/>
<path style="fill:#8d6a6a; stroke:none;" d="M496 29L497 30L496 29z"/>
<path style="fill:#b89592; stroke:none;" d="M459 30L460 31L459 30z"/>
<path style="fill:#8d6a6a; stroke:none;" d="M484 30L485 31L484 30M493 30L495 32L493 30z"/>
<path style="fill:#eaaa9c; stroke:none;" d="M497 30L498 31L497 30z"/>
<path style="fill:#8d6a6a; stroke:none;" d="M456 31L456 32L459 32L456 31M468 31L469 32L468 31z"/>
<path style="fill:#b89592; stroke:none;" d="M471 31L472 32L471 31z"/>
<path style="fill:#8d6a6a; stroke:none;" d="M481 31L482 32L481 31M483 31L484 32L483 31z"/>
<path style="fill:#eaaa9c; stroke:none;" d="M493 31L494 32L493 31z"/>
<path style="fill:#8d6a6a; stroke:none;" d="M496 31L497 32L496 31z"/>
<path style="fill:#b89592; stroke:none;" d="M320 32L321 33L320 32M463 32L464 33L463 32z"/>
<path style="fill:#8d6a6a; stroke:none;" d="M462 33L463 34L462 33z"/>
<path style="fill:#45353b; stroke:none;" d="M462 34L462 35L465 36L465 33L462 34z"/>
<path style="fill:#b89592; stroke:none;" d="M465.333 33.6667L465.667 34.3333L465.333 33.6667z"/>
<path style="fill:#eaaa9c; stroke:none;" d="M475 33L476 34L475 33z"/>
<path style="fill:#b89592; stroke:none;" d="M461 34L462 35L461 34M475 34L476 35L475 34z"/>
<path style="fill:#8d6a6a; stroke:none;" d="M462 35L463 36L462 35z"/>
<path style="fill:#eaaa9c; stroke:none;" d="M475 35L476 36L475 35M469 37L470 38L469 37z"/>
<path style="fill:#fde7e1; stroke:none;" d="M294 52L292 56L296 52L294 52z"/>
<path style="fill:#b89592; stroke:none;" d="M290 57L291 58L290 57M285 60L286 61L285 60M265 62L266 63L265 62M194 78L195 79L194 78M112 80L113 81L112 80z"/>
<path style="fill:#fde7e1; stroke:none;" d="M68 106L69 107L68 106M59.6667 110.333L60.3333 110.667L59.6667 110.333M55 111L45 117C47.8946 116.101 55.6407 114.613 55 111M41 117L41 119L43 117L41 117z"/>
<path style="fill:#eaaa9c; stroke:none;" d="M97 332L97 335L100 335L100 332L97 332M110 333L110 334L114 334L110 333M122 333L122 334L126 335L125 332L122 333M86 333C87.1266 335.006 87.8734 335.006 89 333L86 333z"/>
<path style="fill:#b89592; stroke:none;" d="M87 333L88 334L87 333M98 333L99 334L98 333M112 333L113 334L112 333M123.667 333.333L124.333 333.667L123.667 333.333z"/>
<path style="fill:#eaaa9c; stroke:none;" d="M66 340L69 337L66 340M78 337L79 340L81 340L82 337L78 337M91 337L92 340L94 340L95 337L91 337M103 337L104 340L106 340L107 337L103 337M116 337L116 340L119 340L119 337L116 337M128 337L129 340L131 340L132 337L128 337M55 338L54 340L56 340L55 338z"/>
<path style="fill:#b89592; stroke:none;" d="M67 338L68 339L67 338M92 338L93 339L92 338M105 338L106 339L105 338M117 338L118 339L117 338M129.667 338.333L130.333 338.667L129.667 338.333z"/>
<path style="fill:#eaaa9c; stroke:none;" d="M48 341L47 342L47 343L47 344L50 341L48 341M60 341L60 344L63 344L63 341L60 341M72 341L72 344L76 344L76 341L72 341M85 342L85 343L89 344L89 341L85 342M97 344L101 341L97 344M110 341L114 344L110 341M122 341L122 344L126 344L126 341L122 341M136 341L136 344L139 344L139 341L136 341z"/>
<path style="fill:#b89592; stroke:none;" d="M61 342L62 343L61 342z"/>
<path style="fill:#eaaa9c; stroke:none;" d="M104 345L103 349L107 348L107 346L104 345M40 346L41 349L43 349L44 346L40 346M53 346L53 349L56 349L56 346L53 346M66 349L69 346L66 349M78 346L79 349L81 349L82 346L78 346M91 346L92 349L94 349L95 346L91 346M116 346L116 349L119 349L119 346L116 346M128 346L132 349L128 346M141 346L142 349L144 349L145 346L141 346z"/>
<path style="fill:#b89592; stroke:none;" d="M42 347L43 348L42 347M67 347L68 348L67 347z"/>
<path style="fill:#eaaa9c; stroke:none;" d="M35 350L35 353L38 353L38 350L35 350M47 350L47 353L50 353L50 350L47 350M60 353L64 350L60 353M72 353L76 350L72 353M85 351L85 352L89 353L89 350L85 351M97 350L97 353L101 352L97 350M110 350L111 353L113 353L114 350L110 350M122 350L123 353L125 353L126 350L122 350M136 350L136 353L139 353L139 350L136 350M148 350L151 353L150 350L148 350M28 355L28 358L31 358L31 355L28 355M40 358L44 355L40 358M53 358L57 355L53 358M66 355L66 358L69 358L69 355L66 355M78 355L79 358L81 358L82 355L78 355M91 358L95 355L91 358M103 355L104 358L106 358L107 355L103 355M116 358L120 355L116 358M128 355L129 358L131 358L132 355L128 355M141 355L142 358L144 358L145 355L141 355z"/>
<path style="fill:#b89592; stroke:none;" d="M67 356L68 357L67 356M117 356L118 357L117 356M130 356L131 357L130 356z"/>
<path style="fill:#eaaa9c; stroke:none;" d="M21 360L21 361L25 362L25 359L21 360M35 359L35 362L38 362L38 359L35 359M47 359L47 362L50 362L50 359L47 359M60 359L60 362L64 361L60 359M72 359C72.7502 362.483 74.7217 361.898 76 359L72 359z"/>
<path style="fill:#b89592; stroke:none;" d="M73 359L74 360L73 359z"/>
<path style="fill:#eaaa9c; stroke:none;" d="M85 360L85 361L89 362L89 359L85 360M97 362L101 359L97 362M110 362L114 362L113 359L110 362M122 359L122 362L126 362L126 359L122 359M136 359L136 362L139 362L139 359L136 359M148 359C148.662 362.15 150.338 362.15 151 359L148 359z"/>
<path style="fill:#b89592; stroke:none;" d="M149 359L150 360L149 359z"/>
<path style="fill:#eaaa9c; stroke:none;" d="M103 364L103 366L104 367L106 367L106 363L103 364M16 367L19 364L16 367M28 364L28 367L31 367L31 364L28 364M40 364L44 367L40 364M53 364L53 367L57 366L53 364M66 364L66 367L69 367L69 364L66 364M78 364L78 367L82 367L82 364L78 364M91 367L95 364L91 367M116 364L116 367L119 367L119 364L116 364M128 364L132 367L128 364M141 364L142 367L144 367L145 364L141 364M154 364L154 367L157 367L157 364L154 364z"/>
<path style="fill:#b89592; stroke:none;" d="M29 365L30 366L29 365M67 365L68 366L67 365M92 365L93 366L92 365M117 365L118 366L117 365M130 365L131 366L130 365M155 365L156 366L155 365z"/>
<path style="fill:#eaaa9c; stroke:none;" d="M73 367L72 371L76 371L73 367M21 369L21 370L25 368L21 369M35 368L35 371L38 371L38 368L35 368M47 368L47 371L50 368L47 368M60 368L60 371L64 371L64 368L60 368M85 368L89 371L85 368M97 371L101 368L97 371M110 368L110 371L114 371L114 368L110 368M122 368L126 371L122 368M136 368L136 371L139 371L139 368L136 368M148 368L148 371L151 371L151 368L148 368z"/>
<path style="fill:#b89592; stroke:none;" d="M36 369L37 370L36 369M47 369L48 370L47 369M149 369L150 370L149 369z"/>
<path style="fill:#eaaa9c; stroke:none;" d="M11.6667 370.333L12.3333 370.667L11.6667 370.333M15 373L15 376L19 375L15 373M27 374L27 375L31 376L31 373L27 374M40 373L44 376L40 373M53 373L53 376L57 375L53 373M66 373L66 376L69 376L69 373L66 373M78 373L78 376L82 376L82 373L78 373M91 376L95 373L91 376M103 373L103 376L107 373L103 373M116 376L120 373L116 376M128 373L132 376L128 373M141 373L142 376L144 376L145 373L141 373M154 373L154 376L157 376L157 373L154 373z"/>
<path style="fill:#b89592; stroke:none;" d="M103 374L104 375L103 374M130 374L131 375L130 374M155 374L156 375L155 374z"/>
<path style="fill:#eaaa9c; stroke:none;" d="M21 377L21 379L25 380L24 376L21 377M48 376L47 380L50 380L48 376M73 376L72 380L76 380L73 376M98 376L97 380L101 379L101 377L98 376M123 376L122 380L126 380L125 376L123 376M9 380L13 377L9 380M35 377L35 380L38 380L38 377L35 377M60 377L60 380L64 380L64 377L60 377M85 378L85 379L89 380L89 377L85 378M110 377L110 380L114 380L114 377L110 377M136 377L136 380L139 380L139 377L136 377M148 377L148 380L151 380L151 377L148 377z"/>
<path style="fill:#b89592; stroke:none;" d="M36 378L37 379L36 378M61 378L62 379L61 378z"/>
<path style="fill:#eaaa9c; stroke:none;" d="M4 382L3 384L3 385L6 382L4 382M15 382L19 384L15 382M27 383L27 384L31 382L27 383M40 382L41 385L43 385L44 382L40 382M53 385L57 382L53 385M66 382L66 385L70 384L66 382M78 382L79 385L81 385L82 382L78 382M91 385L95 382L91 385M103 385L107 382L103 385M116 385L120 382L116 385M128 382L132 385L128 382M141 383L141 384L145 382L141 383M154 382L157 385L154 382z"/>
<path style="fill:#b89592; stroke:none;" d="M4 383L5 384L4 383z"/>
<path style="fill:#eaaa9c; stroke:none;" d="M21 386L21 388L22 389L24 389L24 385L21 386M48 385L47 389L50 389L48 385M9 387L9 388L13 389L13 386L9 387M35 386L35 389L38 389L38 386L35 386M60 386L60 389L64 389L64 386L60 386M72 386L72 389L76 389L76 386L72 386M85 386L89 389L85 386M97 386L97 389L101 388L97 386M110 386L110 389L114 389L114 386L110 386M122 386L122 389L126 389L126 386L122 386M136 386L136 389L139 389L139 386L136 386M148 386C148.662 389.15 150.338 389.15 151 386L148 386z"/>
<path style="fill:#b89592; stroke:none;" d="M149 386L150 387L149 386M36 387L37 388L36 387M111 387L112 388L111 387M137 387L138 388L137 387z"/>
<path style="fill:#eaaa9c; stroke:none;" d="M16 390L15 393L16 394L19 393L16 390M29 390L27 393L31 394L29 390M79 390L78 393L82 394L79 390M92 390L91 394L95 393L95 391L92 390M2 391L3 394L5 394L6 391L2 391M40 391L44 394L40 391M53 394L57 391L53 394M66 391L66 394L69 391L66 391z"/>
<path style="fill:#b89592; stroke:none;" d="M67 391L68 392L67 391z"/>
<path style="fill:#eaaa9c; stroke:none;" d="M103 391L104 394L106 394L107 391L103 391M116 394L120 391L116 394M128 391L132 394L128 391M141 391L142 394L144 394L145 391L141 391M154 391C154.662 394.15 156.338 394.15 157 391L156 391L154 391z"/>
<path style="fill:#b89592; stroke:none;" d="M155.333 391.667L155.667 392.333L155.333 391.667M66 392L67 393L66 392M103 392L104 393L103 392M105 392L106 393L105 392z"/>
<path style="fill:#eaaa9c; stroke:none;" d="M21 395L21 397L25 398L24 394L21 395M48 394L47 398L50 398L48 394M73 394L72 398L76 398L73 394M10 395L10 398L13 398L13 395L10 395M35 395L35 398L38 398L38 395L35 395M60 395L60 398L64 398L64 395L60 395M85 396L85 397L89 398L89 395L85 396M97 398L101 395L97 398M110 395L110 398L114 398L114 395L110 395M122 395L122 398L126 398L126 395L122 395M136 395L136 398L139 398L139 395L136 395M148 395L148 398L151 398L151 395L148 395z"/>
<path style="fill:#b89592; stroke:none;" d="M36 396L37 397L36 396M137 396L138 397L137 396z"/>
<path style="fill:#eaaa9c; stroke:none;" d="M16 399L16 403L18 403L19 400L16 399M28 399L31 403L28 399M54 399L53 403L57 402L57 400L54 399M67 399L66 403L69 403L67 399M92 399L91 403L95 402L95 400L92 399M104 399L103 403L107 402L107 400L104 399M117 399L116 403L120 400L117 399M128 400L128 402L132 403L131 399L128 400M2 400L3 403L5 403L6 400L2 400M40 400L41 403L43 403L44 400L40 400M78 400L82 403L78 400M141 400L142 403L144 403L145 400L141 400M154 400L154 403L157 403L157 400L154 400z"/>
<path style="fill:#b89592; stroke:none;" d="M67 401L68 402L67 401z"/>
<path style="fill:#eaaa9c; stroke:none;" d="M22 405L25 405L24 403L22 405M47 405L50 405L49 403L47 405M72 404L72 405L76 405L72 404M97 405L100 403L97 405M10 404L10 405L13 405L10 404M35 404L35 405L38 405L35 404M60 404L60 405L64 405L60 404M86 404L86 405L89 405L86 404M111 404L112 405L111 404z"/>
<path style="fill:#b89592; stroke:none;" d="M112 404L113 405L112 404z"/>
<path style="fill:#eaaa9c; stroke:none;" d="M113 404L114 405L113 404M122 404L122 405L126 405L122 404M136 404L136 405L139 405L136 404M148 404L148 405L151 405L148 404z"/>
</svg>
